<svg xmlns="http://www.w3.org/2000/svg" width="493" height="73" viewBox="0 0 493 73" fill="none">
  <path fill-rule="evenodd" clip-rule="evenodd" d="M640.812 0.942731C640.812 0.462525 640.423 0.0732422 639.943 0.0732422C634.976 0.0732422 632.457 2.96273 630.193 5.55877L630.146 5.61345C627.85 8.24564 625.799 10.5576 621.659 10.5576C617.336 10.5576 615.283 9.5483 613.125 8.48718L613.043 8.44688C610.744 7.31699 608.322 6.15789 603.375 6.15789C598.151 6.15789 595.72 9.74364 593.578 12.9027L593.513 12.9984C591.291 16.2757 589.337 19.0761 585.091 19.0761C582.793 19.0761 581.204 18.7638 579.956 18.3167C578.739 17.8807 577.811 17.3064 576.794 16.6764C576.76 16.6554 576.726 16.6343 576.692 16.6132C575.639 15.9616 574.494 15.266 572.939 14.7454C571.382 14.224 569.453 13.8901 566.807 13.8901C564.03 13.8901 562.065 14.7505 560.541 16.0712C559.101 17.319 558.087 18.9576 557.149 20.4705L557.068 20.6015C556.081 22.1944 555.161 23.6468 553.874 24.7241C552.627 25.7691 550.993 26.49 548.522 26.49C546.159 26.49 544.481 25.482 543.11 23.8927C541.705 22.2631 540.656 20.0593 539.601 17.7248C539.519 17.5411 539.435 17.3564 539.352 17.1712C538.402 15.058 537.417 12.8694 536.147 11.182C534.734 9.30571 532.885 7.93647 530.238 7.93647C525.279 7.93647 522.931 11.5727 520.849 14.797C520.783 14.899 520.717 15.0005 520.652 15.1015C518.438 18.5226 516.385 21.4725 511.954 21.4725C509.534 21.4725 507.844 21.2461 506.521 20.9187C505.197 20.5912 504.211 20.1564 503.164 19.6933L503.149 19.6866C502.105 19.2249 501 18.7359 499.521 18.3702C498.035 18.0025 496.202 17.7655 493.67 17.7655C491.045 17.7655 489.122 18.3837 487.57 19.3436C486.061 20.2774 484.943 21.5136 483.915 22.6501L483.883 22.6855C482.825 23.8562 481.855 24.9208 480.571 25.7149C479.314 26.4927 477.712 27.0329 475.386 27.0329C472.842 27.0329 470.972 27.3217 469.445 27.7702C467.921 28.2179 466.771 28.8162 465.697 29.3789L465.654 29.4018C464.594 29.9575 463.611 30.4727 462.331 30.8616C461.039 31.2542 459.411 31.5262 457.102 31.5262C454.894 31.5262 453.324 30.9456 452.05 30.0933C450.747 29.221 449.724 28.0492 448.617 26.7713L448.584 26.7333C447.51 25.4944 446.351 24.1558 444.837 23.1428C443.277 22.0995 441.371 21.4163 438.818 21.4163C436.254 21.4163 434.362 22.1388 432.829 23.2414C431.372 24.2886 430.262 25.6663 429.232 26.9448L429.142 27.0572C428.061 28.3985 427.05 29.6292 425.733 30.5443C424.447 31.4385 422.835 32.0504 420.534 32.0504C418.157 32.0504 416.567 31.6661 415.354 31.1229C414.162 30.5896 413.286 29.8862 412.309 29.1015L412.222 29.031C411.218 28.2251 410.112 27.3527 408.549 26.6994C406.981 26.0442 405.006 25.6287 402.25 25.6287C399.685 25.6287 397.931 25.1998 396.593 24.5897C395.248 23.976 394.27 23.157 393.251 22.2674C393.189 22.213 393.126 22.1581 393.063 22.103C392.112 21.2702 391.086 20.3715 389.732 19.6878C388.268 18.948 386.464 18.4769 383.966 18.4769C381.287 18.4769 379.352 19.6438 377.84 21.3135C376.404 22.8974 375.315 24.9743 374.284 26.9376L374.197 27.1051C373.114 29.1678 372.082 31.0975 370.743 32.5266C369.44 33.9167 367.873 34.8025 365.681 34.8025C363.625 34.8025 362.096 33.6216 360.771 31.5598C359.43 29.4748 358.415 26.665 357.358 23.7234L357.334 23.659C356.304 20.7929 355.229 17.8034 353.771 15.535C352.287 13.2263 350.293 11.4937 347.397 11.4937C341.912 11.4937 339.489 15.4309 337.381 18.8575L337.372 18.8721C335.181 22.4332 333.321 25.4228 329.113 25.4228C326.593 25.4228 324.772 25.9774 323.298 26.8447C321.943 27.642 320.918 28.6876 319.969 29.6558C319.905 29.7204 319.842 29.7846 319.78 29.8484C318.758 30.8881 317.779 31.8416 316.439 32.554C315.112 33.2589 313.375 33.7541 310.829 33.7541C308.232 33.7541 306.496 33.4463 305.196 33.0095C303.897 32.5733 302.988 31.9951 302.017 31.3662L301.946 31.3204C300.994 30.7037 299.965 30.0373 298.527 29.5372C297.051 29.0241 295.188 28.6992 292.545 28.6992C289.812 28.6992 287.871 29.3884 286.347 30.468C284.897 31.4944 283.873 32.8465 282.934 34.0849L282.853 34.1918C281.868 35.4905 280.958 36.6648 279.68 37.5393C278.431 38.3943 276.773 38.9962 274.261 38.9962C271.648 38.9962 269.893 38.753 268.573 38.4048C267.257 38.0579 266.339 37.5987 265.37 37.1061L265.303 37.0721C264.347 36.5861 263.327 36.067 261.902 35.678C260.446 35.2806 258.604 35.0272 255.977 35.0272C253.494 35.0272 251.796 34.665 250.494 34.1493C249.186 33.6312 248.23 32.9418 247.206 32.1908L247.128 32.1329C246.134 31.4034 245.06 30.6151 243.611 30.0214C242.114 29.4078 240.261 29.0174 237.693 29.0174C234.829 29.0174 232.834 30.6057 231.336 32.764C229.872 34.8729 228.794 37.6504 227.765 40.3014L227.74 40.3655C226.682 43.0918 225.671 45.6831 224.337 47.6047C223.025 49.4939 221.497 50.6039 219.409 50.6039C217.012 50.6039 215.403 50.2849 214.174 49.8324C212.975 49.3912 212.096 48.8107 211.123 48.1684L211.031 48.1079C210.024 47.4432 208.923 46.7297 207.371 46.1964C205.82 45.6634 203.864 45.3243 201.125 45.3243C198.339 45.3243 196.294 45.8653 194.655 46.7112C193.029 47.5505 191.853 48.6656 190.801 49.7026C190.724 49.7785 190.648 49.8538 190.572 49.9285C189.595 50.8936 188.724 51.7543 187.612 52.4116C186.445 53.1013 184.981 53.5807 182.84 53.5807C180.655 53.5807 179.127 53.2295 177.905 52.725C176.733 52.2411 175.811 51.6062 174.793 50.9047L174.62 50.7851C173.542 50.0433 172.36 49.2525 170.77 48.6596C169.176 48.0649 167.214 47.6832 164.556 47.6832C161.698 47.6832 159.643 48.8853 158.056 50.6298C156.507 52.3333 155.386 54.5779 154.348 56.6875L154.251 56.8855C153.225 58.9731 152.271 60.9135 151.038 62.3647C149.803 63.8178 148.339 64.7202 146.272 64.7202C143.973 64.7202 142.41 64.4112 141.194 63.9707C140.032 63.5496 139.153 62.9984 138.18 62.388L138.02 62.288C136.986 61.6403 135.852 60.9507 134.276 60.4351C132.701 59.9197 130.725 59.5904 127.988 59.5904C125.372 59.5904 123.612 59.3618 122.287 59.0338C120.967 58.7071 120.047 58.2746 119.078 57.8123L119.012 57.7808C118.055 57.3243 117.037 56.8382 115.616 56.4741C114.165 56.1023 112.327 55.8647 109.704 55.8647C106.951 55.8647 104.957 56.6359 103.378 57.824C101.833 58.9868 100.726 60.5246 99.7125 61.9377L99.6906 61.9683C98.6595 63.4062 97.7234 64.7116 96.4745 65.6842C95.2545 66.6343 93.7051 67.2852 91.4199 67.2852C86.4337 67.2852 84.4282 67.8863 82.4019 68.4936L82.314 68.5199C80.3845 69.098 78.3737 69.6816 73.1358 69.6816C70.5567 69.6816 68.8694 69.3005 67.6216 68.766C66.3691 68.2295 65.5032 67.5176 64.5483 66.7268L64.5245 66.7069C63.5812 65.9257 62.5473 65.0694 61.0507 64.4283C59.5369 63.7799 57.6055 63.3723 54.8517 63.3723C49.6486 63.3723 47.4734 62.5586 45.4627 61.7501C45.3809 61.7172 45.2989 61.6841 45.2166 61.6508C44.2584 61.264 43.2584 60.8603 41.9854 60.5531C40.5974 60.2182 38.9085 60.0023 36.5676 60.0023C31.5892 60.0023 29.0673 63.024 26.8118 65.7265L26.7581 65.7908C24.4563 68.5484 22.4076 70.9547 18.2836 70.9547C13.986 70.9547 12.0098 70.0838 9.92322 69.1642L9.77747 69.1C7.51764 68.1052 5.10974 67.0979 -0.000549316 67.0979C-0.480774 67.0979 -0.870056 67.4872 -0.870056 67.9674C-0.870056 68.4476 -0.480774 68.8369 -0.000549316 68.8369C4.79297 68.8369 6.95618 69.758 9.07684 70.6916L9.19427 70.7433C11.3942 71.7124 13.6219 72.6936 18.2836 72.6936C23.262 72.6936 25.7839 69.6719 28.0394 66.9695L28.0931 66.9051C30.3949 64.1476 32.4436 61.7413 36.5676 61.7413C38.7978 61.7413 40.3467 61.9466 41.5776 62.2436C42.7217 62.5197 43.6115 62.8786 44.5783 63.2685L44.8139 63.3635C46.9933 64.2399 49.3892 65.1112 54.8517 65.1112C57.4308 65.1112 59.1182 65.4923 60.366 66.0268C61.6184 66.5633 62.4843 67.2753 63.4392 68.0661L63.4631 68.0859C64.4064 68.8671 65.4402 69.7234 66.9368 70.3645C68.4507 71.0129 70.3821 71.4206 73.1358 71.4206C78.5637 71.4206 80.743 70.8059 82.8131 70.1858L82.9467 70.1457C84.8409 69.5775 86.6854 69.0241 91.4199 69.0241C94.0867 69.0241 96.0132 68.2475 97.543 67.0562C98.9926 65.9273 100.056 64.4433 101.04 63.0711L101.126 62.9511C102.16 61.5092 103.124 60.1919 104.424 59.2134C105.69 58.2602 107.315 57.6037 109.704 57.6037C112.223 57.6037 113.909 57.8319 115.184 58.1586C116.44 58.4804 117.329 58.9046 118.29 59.3634L118.329 59.3818C119.312 59.851 120.367 60.3499 121.869 60.7218C123.365 61.0923 125.272 61.3294 127.988 61.3294C130.584 61.3294 132.37 61.6413 133.735 62.0878C135.099 62.534 136.084 63.1269 137.097 63.7617L137.282 63.8778C138.238 64.4779 139.26 65.1194 140.602 65.6057C142.04 66.1271 143.81 66.4592 146.272 66.4592C148.967 66.4592 150.883 65.2321 152.363 63.4907C153.74 61.8699 154.78 59.7527 155.769 57.7396L155.909 57.455C156.966 55.3053 157.987 53.2906 159.343 51.7997C160.661 50.3498 162.273 49.4222 164.556 49.4222C167.041 49.4222 168.793 49.7778 170.163 50.2888C171.537 50.8016 172.569 51.4852 173.634 52.2177C173.701 52.2636 173.768 52.3098 173.835 52.3562C174.831 53.043 175.892 53.7755 177.241 54.3324C178.698 54.9336 180.455 55.3196 182.84 55.3196C185.271 55.3196 187.045 54.767 188.497 53.9086C189.802 53.1368 190.821 52.1287 191.771 51.1885C191.855 51.1055 191.938 51.0231 192.021 50.9413C193.064 49.9142 194.079 48.9652 195.452 48.2565C196.813 47.5543 198.578 47.0633 201.125 47.0633C203.718 47.0633 205.476 47.3841 206.806 47.841C208.135 48.2977 209.081 48.904 210.073 49.5592L210.2 49.6428C211.154 50.2733 212.181 50.9522 213.573 51.4644C215.034 52.0018 216.853 52.3428 219.409 52.3428C222.272 52.3428 224.267 50.7545 225.765 48.5963C227.229 46.4874 228.307 43.7099 229.336 41.0589L229.361 40.9948C230.42 38.2684 231.431 35.6772 232.765 33.7556C234.076 31.8664 235.605 30.7564 237.693 30.7564C240.076 30.7564 241.699 31.1172 242.952 31.6305C244.201 32.1425 245.127 32.8216 246.146 33.5695L246.178 33.5928C247.202 34.3443 248.317 35.1573 249.854 35.766C251.396 36.3771 253.318 36.7662 255.977 36.7662C258.492 36.7662 260.174 37.0089 261.444 37.3556C262.696 37.6974 263.582 38.1481 264.545 38.6375L264.582 38.6563C265.565 39.156 266.623 39.689 268.129 40.0863C269.63 40.4823 271.541 40.7352 274.261 40.7352C277.081 40.7352 279.09 40.05 280.662 38.9743C282.206 37.9181 283.271 36.5181 284.239 35.2426L284.255 35.2205C285.24 33.9221 286.124 32.7569 287.352 31.8871C288.553 31.036 290.135 30.4381 292.545 30.4381C295.044 30.4381 296.705 30.7451 297.955 31.1797C299.194 31.6104 300.073 32.1792 301.04 32.8055L301.072 32.826C302.052 33.4609 303.119 34.1464 304.642 34.658C306.163 35.1689 308.094 35.4931 310.829 35.4931C313.616 35.4931 315.641 34.9469 317.254 34.0897C318.854 33.2399 319.994 32.1106 321.02 31.0675L321.173 30.9116C322.154 29.912 323.03 29.0201 324.18 28.3434C325.361 27.6486 326.872 27.1618 329.113 27.1618C334.318 27.1618 336.661 23.35 338.722 19.9959L338.853 19.7834C341.028 16.2488 342.987 13.2326 347.397 13.2326C349.454 13.2326 350.983 14.4135 352.308 16.4753C353.649 18.5603 354.664 21.3701 355.721 24.3117L355.744 24.3761C356.775 27.2422 357.85 30.2317 359.308 32.5001C360.792 34.8088 362.786 36.5415 365.681 36.5415C368.442 36.5415 370.446 35.3866 372.012 33.7157C373.541 32.0838 374.676 29.9321 375.736 27.9134L375.769 27.8516C376.843 25.8056 377.844 23.8989 379.128 22.4811C380.389 21.0898 381.883 20.2159 383.966 20.2159C386.229 20.2159 387.758 20.6388 388.948 21.24C390.099 21.8216 390.973 22.586 391.952 23.4419C392.004 23.4868 392.055 23.5319 392.107 23.5773C393.136 24.4756 394.277 25.4446 395.872 26.1719C397.474 26.9027 399.482 27.3677 402.25 27.3677C404.826 27.3677 406.565 27.755 407.878 28.3038C409.196 28.8546 410.137 29.5876 411.133 30.3871L411.262 30.4908C412.213 31.2552 413.244 32.0837 414.643 32.7101C416.12 33.371 417.959 33.7894 420.534 33.7894C423.184 33.7894 425.144 33.072 426.726 31.9723C428.278 30.8935 429.434 29.4657 430.496 28.1485L430.524 28.1137C431.6 26.7785 432.581 25.5614 433.844 24.6534C435.084 23.762 436.62 23.1553 438.818 23.1553C441.026 23.1553 442.596 23.7358 443.87 24.5881C445.173 25.4604 446.195 26.6322 447.303 27.9102L447.336 27.9481C448.409 29.1871 449.569 30.5257 451.083 31.5386C452.643 32.5819 454.549 33.2651 457.102 33.2651C459.554 33.2651 461.355 32.9755 462.836 32.5255C464.275 32.0885 465.383 31.5077 466.425 30.9609L466.505 30.9191C467.574 30.3586 468.591 29.8335 469.935 29.4387C471.277 29.0447 472.978 28.7719 475.386 28.7719C478.012 28.7719 479.934 28.1537 481.486 27.1938C482.996 26.26 484.113 25.0238 485.141 23.8873L485.173 23.8519C486.232 22.6812 487.201 21.6166 488.485 20.8225C489.743 20.0447 491.344 19.5045 493.67 19.5045C496.091 19.5045 497.781 19.7309 499.104 20.0583C500.427 20.3858 501.414 20.8206 502.461 21.2836L502.476 21.2904C503.519 21.7521 504.625 22.241 506.103 22.6068C507.589 22.9745 509.423 23.2114 511.954 23.2114C517.428 23.2114 519.946 19.3933 522.112 16.0464L522.149 15.9885C524.38 12.5414 526.235 9.67545 530.238 9.67545C532.163 9.67545 533.551 10.6254 534.758 12.2279C535.905 13.7516 536.81 15.7624 537.785 17.9276C537.862 18.0977 537.939 18.2688 538.017 18.4406C539.057 20.7445 540.199 23.1791 541.793 25.0283C543.422 26.9177 545.553 28.2289 548.522 28.2289C551.385 28.2289 553.418 27.3748 554.991 26.0573C556.526 24.7721 557.581 23.0745 558.546 21.5175L558.563 21.4901C559.549 19.8997 560.443 18.4578 561.68 17.3854C562.882 16.3436 564.441 15.629 566.807 15.629C569.302 15.629 571.04 15.9433 572.387 16.3944C573.737 16.8461 574.735 17.447 575.777 18.0919C575.822 18.1199 575.867 18.148 575.913 18.1762C576.91 18.7943 577.976 19.4547 579.369 19.9538C580.835 20.479 582.627 20.815 585.091 20.815C590.314 20.815 592.746 17.2293 594.887 14.0702L594.952 13.9745C597.175 10.6973 599.128 7.89686 603.375 7.89686C607.951 7.89686 610.099 8.9376 612.276 10.0075L612.332 10.0348C614.601 11.1504 616.933 12.2965 621.659 12.2965C626.626 12.2965 629.145 9.40704 631.409 6.811L631.456 6.75632C633.752 4.12413 635.803 1.81222 639.943 1.81222C640.423 1.81222 640.812 1.42294 640.812 0.942731Z" fill="url(#paint0_linear_3049_4023)"/>
  <defs>
    <linearGradient id="paint0_linear_3049_4023" x1="462.567" y1="-25.0502" x2="467.486" y2="57.428" gradientUnits="userSpaceOnUse">
      <stop stop-color="#A178FF"/>
      <stop offset="1" stop-color="#4D13D5"/>
    </linearGradient>
  </defs>
</svg>