<svg xmlns="http://www.w3.org/2000/svg" width="166" height="158" viewBox="0 0 166 158" fill="none">
  <path d="M157.086 83.5278C157.086 73.77 155.164 64.1076 151.43 55.0925C147.696 46.0774 142.222 37.886 135.322 30.9861C128.423 24.0863 120.231 18.613 111.216 14.8788C102.201 11.1446 92.5387 9.22266 82.7808 9.22266C73.0229 9.22265 63.3606 11.1446 54.3454 14.8788C45.3303 18.613 37.139 24.0862 30.2391 30.9861C23.3392 37.886 17.8659 46.0773 14.1317 55.0924C10.3976 64.1076 8.47559 73.7699 8.47559 83.5278" stroke="#EAECF0" stroke-width="16.5123" stroke-linecap="round" stroke-linejoin="round"/>
  <path fill-rule="evenodd" clip-rule="evenodd" d="M103.19 20.7117C89.9248 16.4015 75.6353 16.4015 62.3698 20.7117C49.1043 25.0219 37.5438 33.4211 29.3453 44.7054C21.1467 55.9898 16.731 69.5799 16.731 83.5281C16.731 88.0878 13.0346 91.7842 8.47488 91.7842C3.91514 91.7842 0.218749 88.0878 0.21875 83.5281C0.218752 66.0929 5.73839 49.1052 15.9866 34.9998C26.2347 20.8944 40.6853 10.3954 57.2672 5.00763C73.8491 -0.380152 91.711 -0.380147 108.293 5.00764C124.875 10.3954 139.325 20.8944 149.574 34.9998C152.254 38.6887 151.436 43.8518 147.747 46.532C144.058 49.2121 138.895 48.3944 136.215 44.7055C128.016 33.4211 116.456 25.022 103.19 20.7117Z" fill="url(#paint0_linear_2983_4072)"/>
  <defs>
    <linearGradient id="paint0_linear_2983_4072" x1="147.361" y1="-408.95" x2="3.3087" y2="-399.418" gradientUnits="userSpaceOnUse">
      <stop stop-color="#A178FF"/>
      <stop offset="1" stop-color="#4D13D5"/>
    </linearGradient>
  </defs>
</svg>