<svg xmlns="http://www.w3.org/2000/svg" width="57" height="40" viewBox="0 0 57 40" fill="none">
  <path fill-rule="evenodd" clip-rule="evenodd" d="M44.2449 14.6855C44.572 14.4527 45.035 14.3364 45.6356 14.3364C45.859 14.3364 46.0324 14.3453 46.1521 14.3614L46.9261 10.0519C46.4435 10.0179 46.0914 10 45.8679 10C43.8249 10 42.1625 10.5085 40.8827 11.5218C39.6011 12.5388 38.7896 13.9836 38.4464 15.86H36.7984L36.0762 20.0925H37.6993L35.8957 30.3408H40.9721L42.7774 20.0925H45.1476L45.8947 15.86H43.5496C43.6872 15.3085 43.9178 14.9164 44.2449 14.6855ZM7.39763 21.5628C8.51479 21.8045 9.43891 22.0641 10.17 22.338C10.8993 22.6137 11.5356 23.0613 12.0754 23.6808C12.617 24.3003 12.8887 25.1346 12.8887 26.1838C12.8887 27.0289 12.6563 27.7772 12.1934 28.4307C11.7286 29.0842 11.053 29.5963 10.17 29.9669C9.28519 30.3357 8.24131 30.5201 7.03835 30.5201C5.00959 30.5201 3.39552 30.0815 2.19256 29.2042C0.989605 28.3269 0.260323 27.0718 0.00292969 25.4354H4.87375C4.94167 25.9689 5.16868 26.3664 5.55655 26.6242C5.94264 26.882 6.42704 27.011 7.01154 27.011C7.40657 27.011 7.70865 26.925 7.91421 26.7531C8.12155 26.5813 8.22344 26.3575 8.22344 26.0817C8.22344 25.6681 8.00358 25.3674 7.56565 25.1776C7.12773 24.9878 6.42704 24.7998 5.46539 24.61C4.36611 24.3862 3.46523 24.1409 2.75919 23.8742C2.05493 23.6074 1.44183 23.1777 0.916319 22.5833C0.392595 21.9907 0.131626 21.1689 0.131626 20.1179C0.131626 18.8109 0.637476 17.7438 1.65096 16.9184C2.66624 16.0913 4.10871 15.6777 5.98018 15.6777C7.88918 15.6777 9.40852 16.1432 10.5436 17.0724C11.6768 18.0016 12.39 19.2316 12.6814 20.7642H7.94102C7.82126 20.2486 7.57459 19.8601 7.20637 19.6023C6.83637 19.3444 6.38593 19.2155 5.85327 19.2155C5.47433 19.2155 5.18655 19.2961 4.98993 19.4608C4.79152 19.6237 4.69321 19.8511 4.69321 20.1448C4.69321 20.5064 4.90413 20.7768 5.32418 20.9576C5.74424 21.1384 6.43598 21.3407 7.39763 21.5628ZM28.2345 25.6171L31.5342 15.8594H36.2245L30.0899 30.3402H24.3969L23.8034 21.3828L19.989 30.3402H14.2924L13.3147 15.8594H18.3392L18.2105 25.5401L22.1804 15.8594H27.5911L28.2345 25.6171ZM49.3291 12.3487H54.3787L53.7602 15.8596H56.3896L55.6424 20.0922H53.0131L52.189 24.7651C52.173 24.851 52.164 24.971 52.164 25.1268C52.164 25.4365 52.2498 25.6603 52.4196 25.7982C52.593 25.936 52.8754 26.0041 53.2722 26.0041H54.6629L53.8639 30.3404H51.8029C48.5891 30.3404 46.9822 28.9726 46.9822 26.2368C46.9822 25.7552 47.0358 25.2288 47.1377 24.6613L47.9617 20.0922H46.0813L46.8285 15.8596H48.7089L49.3291 12.3487Z" fill="white"/>
</svg>