<svg xmlns="http://www.w3.org/2000/svg" width="493" height="111" viewBox="0 0 493 111" fill="none">
  <path opacity="0.1" d="M621.658 9.37281C630.8 9.37281 630.8 0.208008 639.942 0.208008V136.718H-0.00115967V58.7973C9.90271 58.7973 9.14087 62.1686 18.2829 62.1686C27.425 62.1686 27.425 52.5947 36.567 52.5947C45.709 52.5947 44.1854 55.5405 54.8511 55.5405C65.5168 55.5405 62.4695 61.0558 73.1352 61.0558C83.8009 61.0558 81.5154 58.9609 91.4193 58.9609C101.323 58.9609 99.4186 48.9779 109.703 48.9779C119.988 48.9779 117.322 52.2346 127.988 52.2346C138.653 52.2346 136.749 56.7188 146.272 56.7188C155.795 56.7188 154.271 41.826 164.556 41.826C174.841 41.826 173.698 46.9812 182.84 46.9812C191.982 46.9812 190.458 39.764 201.124 39.764C211.79 39.764 209.504 44.3791 219.408 44.3791C229.312 44.3791 227.788 25.5094 237.692 25.5094C247.596 25.5094 245.691 30.7628 255.976 30.7628C266.261 30.7628 263.595 34.2323 274.26 34.2323C284.926 34.2323 282.26 25.2312 292.544 25.2312C302.829 25.2312 300.163 29.6499 310.829 29.6499C321.494 29.6499 319.59 22.3672 329.113 22.3672C338.636 22.3672 337.493 10.1911 347.397 10.1911C357.301 10.1911 355.777 30.5664 365.681 30.5664C375.585 30.5664 374.442 16.2955 383.965 16.2955C393.488 16.2955 391.583 22.5472 402.249 22.5472C412.915 22.5472 410.629 28.1607 420.533 28.1607C430.437 28.1607 429.294 18.8649 438.817 18.8649C448.34 18.8649 447.578 27.7024 457.101 27.7024C466.624 27.7024 465.482 23.7746 475.385 23.7746C485.289 23.7746 483.766 15.6736 493.67 15.6736C503.573 15.6736 502.05 18.914 511.954 18.914C521.858 18.914 521.096 7.08161 530.238 7.08161C539.38 7.08161 537.856 23.3 548.522 23.3C559.188 23.3 556.521 12.2859 566.806 12.2859C577.091 12.2859 575.567 16.8192 585.09 16.8192C594.613 16.8192 593.851 5.52687 603.374 5.52687C612.897 5.52687 612.516 9.37281 621.658 9.37281Z" fill="#7F56D9"/>
</svg>