<svg xmlns="http://www.w3.org/2000/svg" width="46" height="32" viewBox="0 0 46 32" fill="none">
  <path fill-rule="evenodd" clip-rule="evenodd" d="M35.3953 11.7484C35.657 11.5622 36.0274 11.4691 36.5079 11.4691C36.6866 11.4691 36.8253 11.4762 36.9211 11.4891L37.5403 8.04154C37.1542 8.01432 36.8725 8 36.6937 8C35.0593 8 33.7294 8.40678 32.7056 9.21747C31.6803 10.031 31.0311 11.1869 30.7565 12.688H29.4381L28.8604 16.074H30.1588L28.716 24.2726H32.7771L34.2213 16.074H36.1175L36.7152 12.688H34.8391C34.9492 12.2468 35.1337 11.9332 35.3953 11.7484ZM5.91772 17.2502C6.81144 17.4436 7.55073 17.6513 8.13559 17.8704C8.71902 18.091 9.22808 18.4491 9.65993 18.9446C10.0932 19.4402 10.3106 20.1077 10.3106 20.947C10.3106 21.6231 10.1247 22.2218 9.75431 22.7446C9.38252 23.2674 8.84199 23.677 8.13559 23.9735C7.42776 24.2686 6.59266 24.4161 5.63029 24.4161C4.00728 24.4161 2.71603 24.0652 1.75366 23.3634C0.791294 22.6615 0.207868 21.6575 0.00195312 20.3483H3.89861C3.95294 20.7751 4.13455 21.0931 4.44485 21.2994C4.75372 21.5056 5.14124 21.6088 5.60884 21.6088C5.92487 21.6088 6.16653 21.54 6.33098 21.4025C6.49685 21.265 6.57836 21.086 6.57836 20.8654C6.57836 20.5345 6.40247 20.2939 6.05213 20.1421C5.70179 19.9902 5.14124 19.8398 4.37192 19.688C3.4925 19.509 2.77179 19.3127 2.20696 19.0993C1.64355 18.8859 1.15307 18.5422 0.732665 18.0666C0.313685 17.5925 0.104911 16.9351 0.104911 16.0943C0.104911 15.0487 0.50959 14.1951 1.32038 13.5348C2.1326 12.873 3.28658 12.5422 4.78375 12.5422C6.31096 12.5422 7.52643 12.9146 8.43445 13.6579C9.34105 14.4013 9.91161 15.3853 10.1447 16.6114H6.35242C6.25662 16.1989 6.05928 15.8881 5.76471 15.6818C5.46871 15.4756 5.10836 15.3724 4.68223 15.3724C4.37907 15.3724 4.14885 15.4369 3.99155 15.5687C3.83283 15.699 3.75418 15.8809 3.75418 16.1158C3.75418 16.4051 3.92291 16.6214 4.25896 16.7661C4.595 16.9107 5.14839 17.0726 5.91772 17.2502ZM22.5865 20.4937L25.2262 12.6875H28.9784L24.0708 24.2721H19.5163L19.0416 17.1062L15.99 24.2721H11.4327L10.6506 12.6875H14.6702L14.5672 20.4321L17.7432 12.6875H22.0717L22.5865 20.4937ZM39.4629 9.87893H43.5025L43.0078 12.6877H45.1113L44.5135 16.0737H42.4101L41.7508 19.8121C41.738 19.8808 41.7308 19.9768 41.7308 20.1014C41.7308 20.3492 41.7995 20.5282 41.9353 20.6385C42.074 20.7488 42.2999 20.8033 42.6174 20.8033H43.7299L43.0907 24.2723H41.442C38.8709 24.2723 37.5854 23.178 37.5854 20.9895C37.5854 20.6042 37.6283 20.1831 37.7098 19.729L38.369 16.0737H36.8647L37.4624 12.6877H38.9667L39.4629 9.87893Z" fill="black"/>
</svg>