<svg xmlns="http://www.w3.org/2000/svg" width="26" height="31" viewBox="0 0 26 31" fill="none">
  <path fill-rule="evenodd" clip-rule="evenodd" d="M20.2044 29.9302C21.3176 30.3757 22.5837 29.8405 23.0322 28.7347C24.9464 24.2407 25.9325 19.7467 25.9325 15.4256C25.9325 11.1044 24.9464 6.66807 23.0322 2.2317C22.5391 1.07939 21.205 0.560854 20.0738 1.13701C19.0587 1.62674 18.5657 2.83666 19.0297 3.87373C20.7119 7.79157 21.582 11.6518 21.582 15.4256C21.582 19.1994 20.7119 23.1172 19.0007 27.1215C18.5522 28.2272 19.0911 29.4847 20.2044 29.9302ZM14.0105 24.9038C13.5175 26.0849 12.0673 26.5458 10.9362 25.9121C9.98867 25.3669 9.59227 24.2103 10.0081 23.2041C10.9652 20.986 11.4292 18.5085 11.4292 15.8294C11.4292 13.0639 10.9072 10.3847 9.89207 7.82087C9.48603 6.78379 9.95008 5.63149 10.9362 5.11295C12.0673 4.5368 13.4595 5.05534 13.9235 6.23645C15.1416 9.29006 15.7507 12.5165 15.7507 15.8294C15.8087 19.0847 15.1997 22.1383 14.0105 24.9038ZM4.90282 20.3239C4.52578 21.5627 3.10463 22.1388 1.9445 21.6203C0.959673 21.1656 0.464232 20.0583 0.784372 19.0276C1.13241 17.8465 1.30643 16.6366 1.27743 15.4554C1.24842 14.2743 1.10341 13.1508 0.784372 12.0561C0.494341 11.0191 0.958391 9.89557 1.9445 9.46345C3.16263 8.91611 4.58379 9.57868 4.96083 10.875C5.39588 12.3442 5.5989 13.8422 5.6279 15.3978C5.62681 17.066 5.38258 18.7252 4.90282 20.3239Z" fill="url(#paint0_linear_2983_4081)"/>
  <defs>
    <linearGradient id="paint0_linear_2983_4081" x1="-7.90438" y1="-10.8071" x2="30.424" y2="-4.60343" gradientUnits="userSpaceOnUse">
      <stop stop-color="white"/>
      <stop offset="0.0001" stop-color="white" stop-opacity="0.7"/>
      <stop offset="1" stop-color="white"/>
    </linearGradient>
  </defs>
</svg>