<svg width="26" height="30" viewBox="0 0 26 30" fill="none" xmlns="http://www.w3.org/2000/svg">
<g id="ic:round-contactless">
<path id="Shape" fill-rule="evenodd" clip-rule="evenodd" d="M19.6809 29.7281C20.7942 30.1736 22.0602 29.6383 22.5087 28.5326C24.4229 24.0386 25.409 19.5446 25.409 15.2234C25.409 10.9023 24.4229 6.46592 22.5087 2.02955C22.0157 0.877243 20.6815 0.358705 19.5504 0.934858C18.5353 1.42459 18.0422 2.63451 18.5063 3.67158C20.1885 7.58942 21.0586 11.4496 21.0586 15.2234C21.0586 18.9972 20.1885 22.9151 18.4773 26.9193C18.0288 28.0251 18.5677 29.2826 19.6809 29.7281ZM13.4867 24.7015C12.9937 25.8826 11.5435 26.3435 10.4124 25.7098C9.46489 25.1646 9.06849 24.008 9.4843 23.0019C10.4414 20.7837 10.9055 18.3062 10.9055 15.6271C10.9055 12.8616 10.3834 10.1825 9.36829 7.61858C8.96225 6.5815 9.4263 5.4292 10.4124 4.91066C11.5435 4.33451 12.9357 4.85305 13.3997 6.03416C14.6179 9.08777 15.2269 12.3142 15.2269 15.6271C15.2849 18.8824 14.6759 21.936 13.4867 24.7015ZM4.37938 20.1218C4.00234 21.3605 2.58119 21.9367 1.42106 21.4181C0.436236 20.9634 -0.0592054 19.8562 0.260935 18.8254C0.608973 17.6443 0.782992 16.4344 0.753989 15.2533C0.724986 14.0722 0.57997 12.9487 0.260935 11.854C-0.0290969 10.8169 0.434954 9.69342 1.42106 9.2613C2.63919 8.71396 4.06035 9.37653 4.43739 10.6729C4.87244 12.1421 5.07546 13.6401 5.10446 15.1957C5.10337 16.8639 4.85914 18.5231 4.37938 20.1218Z" fill="black"/>
</g>
</svg>
